<svg width="479" height="298" viewBox="0 0 479 298" fill="none" xmlns="http://www.w3.org/2000/svg">
<path d="M181.908 32.0645C181.908 34.2793 181.51 36.2422 180.713 37.9531C179.928 39.6523 178.803 40.9707 177.338 41.9082C175.873 42.834 174.186 43.2969 172.275 43.2969C169.393 43.2969 167.061 42.2715 165.279 40.2207C163.498 38.1699 162.607 35.4043 162.607 31.9238V28.2324C162.607 26.0293 163 24.0723 163.785 22.3613C164.582 20.6504 165.713 19.332 167.178 18.4062C168.654 17.4688 170.342 17 172.24 17C174.15 17 175.838 17.4688 177.303 18.4062C178.779 19.332 179.916 20.6562 180.713 22.3789C181.51 24.0898 181.908 26.041 181.908 28.2324V32.0645ZM180.959 28.1973C180.959 25.1035 180.174 22.625 178.604 20.7617C177.033 18.8867 174.912 17.9492 172.24 17.9492C169.604 17.9492 167.5 18.8809 165.93 20.7441C164.359 22.5957 163.574 25.1211 163.574 28.3203V32.0645C163.574 34.1035 163.926 35.9082 164.629 37.4785C165.344 39.0371 166.357 40.2383 167.67 41.082C168.982 41.9258 170.518 42.3477 172.275 42.3477C174.947 42.3477 177.062 41.416 178.621 39.5527C180.18 37.6895 180.959 35.1465 180.959 31.9238V28.1973Z" fill="#871E44"/>
<path d="M200.453 24.8926H192.982V42.9453H192.033V24.8926H184.949V23.9258H200.453V24.8926Z" fill="#871E44"/>
<path d="M216.027 28.7949C216.027 27.4473 215.529 26.3984 214.533 25.6484C213.549 24.8984 212.107 24.5234 210.209 24.5234C208.568 24.5234 207.18 24.9395 206.043 25.7715C204.918 26.6035 204.355 27.6465 204.355 28.9004H203.389C203.389 27.3652 204.051 26.0938 205.375 25.0859C206.711 24.0781 208.322 23.5742 210.209 23.5742C212.365 23.5742 214.035 24.043 215.219 24.9805C216.402 25.9062 216.994 27.1953 216.994 28.8477C216.994 29.8438 216.672 30.7285 216.027 31.502C215.383 32.2754 214.475 32.8438 213.303 33.207C215.986 33.8164 217.328 35.3633 217.328 37.8477C217.328 39.5117 216.684 40.8359 215.395 41.8203C214.117 42.793 212.395 43.2793 210.227 43.2793C208.961 43.2793 207.771 43.0449 206.658 42.5762C205.545 42.1074 204.666 41.4512 204.021 40.6074C203.389 39.7637 203.072 38.7793 203.072 37.6543H204.039C204.039 38.9668 204.625 40.0742 205.797 40.9766C206.969 41.8672 208.445 42.3125 210.227 42.3125C212.242 42.3125 213.766 41.9199 214.797 41.1348C215.84 40.3379 216.361 39.2598 216.361 37.9004C216.361 36.4355 215.852 35.375 214.832 34.7188C213.824 34.0625 212.307 33.7285 210.279 33.7168H207.625V32.75H210.473C214.176 32.6914 216.027 31.373 216.027 28.7949Z" fill="#871E44"/>
<path d="M223.498 31.168H229.738C231.766 31.2031 233.377 31.7539 234.572 32.8203C235.768 33.875 236.365 35.2871 236.365 37.0566C236.365 38.8145 235.773 40.2266 234.59 41.293C233.406 42.3594 231.789 42.9102 229.738 42.9453H222.549V23.9258H223.498V31.168ZM223.498 32.1172V41.9961H229.562C231.391 41.9961 232.82 41.5508 233.852 40.6602C234.895 39.7578 235.416 38.5449 235.416 37.0215C235.416 35.5684 234.906 34.3965 233.887 33.5059C232.879 32.6035 231.484 32.1406 229.703 32.1172H223.498ZM242.482 42.9453H241.533V23.9258H242.482V42.9453Z" fill="#871E44"/>
<path d="M248.67 42.9453V23.9258H255.209C257.518 23.9258 259.281 24.3477 260.5 25.1914C261.73 26.0234 262.346 27.2422 262.346 28.8477C262.346 29.9023 262.018 30.8223 261.361 31.6074C260.717 32.3926 259.791 32.9199 258.584 33.1895H258.602C259.891 33.3301 260.975 33.834 261.854 34.7012C262.732 35.5684 263.172 36.5996 263.172 37.7949C263.172 39.4238 262.568 40.6895 261.361 41.5918C260.166 42.4941 258.49 42.9453 256.334 42.9453H248.67ZM249.619 33.7871V41.9961H256.422C258.238 41.9961 259.662 41.6328 260.693 40.9062C261.725 40.1797 262.24 39.1484 262.24 37.8125C262.24 36.6172 261.713 35.6504 260.658 34.9121C259.615 34.1621 258.186 33.7871 256.369 33.7871H249.619ZM249.619 32.8379H255.561C257.482 32.8379 258.936 32.498 259.92 31.8184C260.904 31.1387 261.396 30.1309 261.396 28.7949C261.396 27.4355 260.869 26.4453 259.814 25.8242C258.76 25.2031 257.225 24.8926 255.209 24.8926H249.619V32.8379Z" fill="#871E44"/>
<path d="M269.342 31.168H275.582C277.609 31.2031 279.221 31.7539 280.416 32.8203C281.611 33.875 282.209 35.2871 282.209 37.0566C282.209 38.8145 281.617 40.2266 280.434 41.293C279.25 42.3594 277.633 42.9102 275.582 42.9453H268.393V23.9258H269.342V31.168ZM269.342 32.1172V41.9961H275.406C277.234 41.9961 278.664 41.5508 279.695 40.6602C280.738 39.7578 281.26 38.5449 281.26 37.0215C281.26 35.5684 280.75 34.3965 279.73 33.5059C278.723 32.6035 277.328 32.1406 275.547 32.1172H269.342ZM288.326 42.9453H287.377V23.9258H288.326V42.9453Z" fill="#871E44"/>
<path d="M116.676 84.9453H115.709V75.6465H103.949V84.9453H103V65.9258H103.949V74.6973H115.709V65.9258H116.676V84.9453Z" fill="#871E44"/>
<path d="M135.01 84.9453C134.775 84.1367 134.658 82.9766 134.658 81.4648C133.908 82.6836 132.883 83.627 131.582 84.2949C130.281 84.9629 128.811 85.2969 127.17 85.2969C125.412 85.2969 123.994 84.8223 122.916 83.873C121.85 82.9121 121.316 81.6641 121.316 80.1289C121.316 78.3828 122.102 76.9883 123.672 75.9453C125.254 74.8906 127.352 74.3516 129.965 74.3281H134.658V71.5508C134.658 69.957 134.154 68.7207 133.146 67.8418C132.15 66.9629 130.721 66.5234 128.857 66.5234C127.123 66.5234 125.676 66.9688 124.516 67.8594C123.355 68.75 122.775 69.8516 122.775 71.1641L121.826 71.1289C121.826 69.582 122.506 68.2695 123.865 67.1914C125.225 66.1133 126.889 65.5742 128.857 65.5742C130.908 65.5742 132.537 66.0898 133.744 67.1211C134.951 68.1406 135.572 69.582 135.607 71.4453V80.5332C135.607 82.6191 135.771 84.0371 136.1 84.7871V84.9453H135.01ZM127.17 84.3652C128.951 84.3652 130.48 83.9668 131.758 83.1699C133.047 82.373 134.014 81.2539 134.658 79.8125V75.2949H130.264C127.545 75.2949 125.465 75.834 124.023 76.9121C122.852 77.791 122.266 78.8867 122.266 80.1992C122.266 81.3594 122.729 82.3438 123.654 83.1523C124.58 83.9609 125.752 84.3652 127.17 84.3652Z" fill="#871E44"/>
<path d="M142.691 65.9258V83.9961H152.658V65.9258H153.625V83.9961H163.434V65.9258H164.383V84.9453H141.742V65.9258H142.691Z" fill="#871E44"/>
<path d="M182.471 65.9258H183.438V84.9453H182.471V67.6133L170.711 84.9453H169.762V65.9258H170.711V83.2578L182.471 65.9258Z" fill="#871E44"/>
<path d="M195.057 74.3633L201.121 65.9258H202.316L195.637 75.1895L202.668 84.9453H201.49L195.039 76.0156L188.605 84.9453H187.428L194.459 75.1895L187.779 65.9258H188.975L195.057 74.3633Z" fill="#871E44"/>
<path d="M219.719 75.6465H216.238V84.9453H215.271V65.9258H216.238V74.7148H219.895L227.436 65.9258H228.807L220.721 75.2422L229.914 84.9453H228.49L219.719 75.6465Z" fill="#871E44"/>
<path d="M246.824 65.9258V84.9453H245.857V66.8926H236.752L236.383 75.7871C236.195 79.1738 235.738 81.541 235.012 82.8887C234.297 84.2363 233.148 84.9219 231.566 84.9453H230.898V84.0137H231.689C232.885 83.9668 233.758 83.3398 234.309 82.1328C234.871 80.9258 235.24 78.9102 235.416 76.0859L235.838 65.9258H246.824Z" fill="#871E44"/>
<path d="M265.58 65.9258H266.547V84.9453H265.58V67.6133L253.82 84.9453H252.871V65.9258H253.82V83.2578L265.58 65.9258Z" fill="#871E44"/>
<path d="M279.432 85.2969C277.896 85.2969 276.484 84.8867 275.195 84.0664C273.918 83.2344 272.916 82.0977 272.189 80.6562C271.463 79.2148 271.1 77.6152 271.1 75.8574V75.0664C271.1 73.3086 271.451 71.6973 272.154 70.2324C272.857 68.7676 273.824 67.625 275.055 66.8047C276.285 65.9844 277.627 65.5742 279.08 65.5742C281.201 65.5742 282.936 66.3301 284.283 67.8418C285.631 69.3535 286.305 71.3398 286.305 73.8008V74.8027H272.049V75.8398C272.049 77.3867 272.371 78.8223 273.016 80.1465C273.672 81.459 274.568 82.4902 275.705 83.2402C276.854 83.9902 278.096 84.3652 279.432 84.3652C280.709 84.3652 281.793 84.1543 282.684 83.7324C283.586 83.2988 284.383 82.6367 285.074 81.7461L285.742 82.2207C284.324 84.2715 282.221 85.2969 279.432 85.2969ZM279.08 66.5234C277.229 66.5234 275.658 67.2148 274.369 68.5977C273.08 69.9688 272.324 71.7207 272.102 73.8535H285.355V73.625C285.355 72.3359 285.08 71.1406 284.529 70.0391C283.99 68.9258 283.24 68.0645 282.279 67.4551C281.33 66.834 280.264 66.5234 279.08 66.5234Z" fill="#871E44"/>
<path d="M304.41 84.9453H303.443V75.6465H291.684V84.9453H290.734V65.9258H291.684V74.6973H303.443V65.9258H304.41V84.9453Z" fill="#871E44"/>
<path d="M323.641 66.8926H316.17V84.9453H315.221V66.8926H308.137V65.9258H323.641V66.8926Z" fill="#871E44"/>
<path d="M325.188 75.0664C325.188 73.25 325.533 71.6211 326.225 70.1797C326.928 68.7266 327.912 67.5957 329.178 66.7871C330.455 65.9785 331.896 65.5742 333.502 65.5742C335.096 65.5742 336.525 65.9668 337.791 66.752C339.057 67.5371 340.041 68.6504 340.744 70.0918C341.459 71.5332 341.822 73.1562 341.834 74.9609V75.8047C341.834 77.6328 341.488 79.2676 340.797 80.709C340.105 82.1504 339.121 83.2754 337.844 84.084C336.578 84.8926 335.143 85.2969 333.537 85.2969C331.932 85.2969 330.49 84.8984 329.213 84.1016C327.947 83.3047 326.963 82.1914 326.26 80.7617C325.557 79.3203 325.199 77.7031 325.188 75.9102V75.0664ZM326.137 75.8047C326.137 77.3867 326.447 78.8398 327.068 80.1641C327.701 81.4766 328.574 82.502 329.688 83.2402C330.812 83.9785 332.096 84.3477 333.537 84.3477C335.705 84.3477 337.469 83.5332 338.828 81.9043C340.199 80.2754 340.885 78.1777 340.885 75.6113V75.0664C340.885 73.5078 340.568 72.0664 339.936 70.7422C339.303 69.418 338.424 68.3867 337.299 67.6484C336.186 66.8984 334.92 66.5234 333.502 66.5234C331.334 66.5234 329.564 67.3496 328.193 69.002C326.822 70.6543 326.137 72.7344 326.137 75.2422V75.8047Z" fill="#871E44"/>
<path d="M346.615 84.9453V65.9258H353.154C355.463 65.9258 357.227 66.3477 358.445 67.1914C359.676 68.0234 360.291 69.2422 360.291 70.8477C360.291 71.9023 359.963 72.8223 359.307 73.6074C358.662 74.3926 357.736 74.9199 356.529 75.1895H356.547C357.836 75.3301 358.92 75.834 359.799 76.7012C360.678 77.5684 361.117 78.5996 361.117 79.7949C361.117 81.4238 360.514 82.6895 359.307 83.5918C358.111 84.4941 356.436 84.9453 354.279 84.9453H346.615ZM347.564 75.7871V83.9961H354.367C356.184 83.9961 357.607 83.6328 358.639 82.9062C359.67 82.1797 360.186 81.1484 360.186 79.8125C360.186 78.6172 359.658 77.6504 358.604 76.9121C357.561 76.1621 356.131 75.7871 354.314 75.7871H347.564ZM347.564 74.8379H353.506C355.428 74.8379 356.881 74.498 357.865 73.8184C358.85 73.1387 359.342 72.1309 359.342 70.7949C359.342 69.4355 358.814 68.4453 357.76 67.8242C356.705 67.2031 355.17 66.8926 353.154 66.8926H347.564V74.8379Z" fill="#871E44"/>
<line x1="215" y1="153.5" x2="436" y2="153.5" stroke="black"/>
<path d="M247.979 147.408C247.979 146.283 247.58 145.416 246.783 144.807C245.998 144.197 244.574 143.582 242.512 142.961C240.449 142.34 238.809 141.648 237.59 140.887C235.258 139.422 234.092 137.512 234.092 135.156C234.092 133.094 234.93 131.395 236.605 130.059C238.293 128.723 240.479 128.055 243.162 128.055C244.943 128.055 246.531 128.383 247.926 129.039C249.32 129.695 250.416 130.633 251.213 131.852C252.01 133.059 252.408 134.4 252.408 135.877H247.979C247.979 134.541 247.557 133.498 246.713 132.748C245.881 131.986 244.686 131.605 243.127 131.605C241.674 131.605 240.543 131.916 239.734 132.537C238.938 133.158 238.539 134.025 238.539 135.139C238.539 136.076 238.973 136.861 239.84 137.494C240.707 138.115 242.137 138.725 244.129 139.322C246.121 139.908 247.721 140.582 248.928 141.344C250.135 142.094 251.02 142.961 251.582 143.945C252.145 144.918 252.426 146.061 252.426 147.373C252.426 149.506 251.605 151.205 249.965 152.471C248.336 153.725 246.121 154.352 243.32 154.352C241.469 154.352 239.764 154.012 238.205 153.332C236.658 152.641 235.451 151.691 234.584 150.484C233.729 149.277 233.301 147.871 233.301 146.266H237.748C237.748 147.719 238.229 148.844 239.189 149.641C240.15 150.438 241.527 150.836 243.32 150.836C244.867 150.836 246.027 150.525 246.801 149.904C247.586 149.271 247.979 148.439 247.979 147.408ZM255.115 144.314C255.115 142.451 255.484 140.775 256.223 139.287C256.961 137.787 257.998 136.639 259.334 135.842C260.67 135.033 262.205 134.629 263.939 134.629C266.506 134.629 268.586 135.455 270.18 137.107C271.785 138.76 272.652 140.951 272.781 143.682L272.799 144.684C272.799 146.559 272.436 148.234 271.709 149.711C270.994 151.188 269.963 152.33 268.615 153.139C267.279 153.947 265.732 154.352 263.975 154.352C261.291 154.352 259.141 153.461 257.523 151.68C255.918 149.887 255.115 147.502 255.115 144.525V144.314ZM259.387 144.684C259.387 146.641 259.791 148.176 260.6 149.289C261.408 150.391 262.533 150.941 263.975 150.941C265.416 150.941 266.535 150.379 267.332 149.254C268.141 148.129 268.545 146.482 268.545 144.314C268.545 142.393 268.129 140.869 267.297 139.744C266.477 138.619 265.357 138.057 263.939 138.057C262.545 138.057 261.438 138.613 260.617 139.727C259.797 140.828 259.387 142.48 259.387 144.684ZM280.955 154H276.684V127H280.955V154ZM292.328 148.586L296.354 134.98H300.766L294.174 154H290.465L283.82 134.98H288.25L292.328 148.586ZM307.99 154H303.719V134.98H307.99V154ZM303.455 130.041C303.455 129.385 303.66 128.84 304.07 128.406C304.492 127.973 305.09 127.756 305.863 127.756C306.637 127.756 307.234 127.973 307.656 128.406C308.078 128.84 308.289 129.385 308.289 130.041C308.289 130.686 308.078 131.225 307.656 131.658C307.234 132.08 306.637 132.291 305.863 132.291C305.09 132.291 304.492 132.08 304.07 131.658C303.66 131.225 303.455 130.686 303.455 130.041ZM316.621 134.98L316.744 137.178C318.15 135.479 319.996 134.629 322.281 134.629C326.242 134.629 328.258 136.896 328.328 141.432V154H324.057V141.678C324.057 140.471 323.793 139.58 323.266 139.006C322.75 138.42 321.9 138.127 320.717 138.127C318.994 138.127 317.711 138.906 316.867 140.465V154H312.596V134.98H316.621ZM338.049 130.357V134.98H341.406V138.145H338.049V148.762C338.049 149.488 338.189 150.016 338.471 150.344C338.764 150.66 339.279 150.818 340.018 150.818C340.51 150.818 341.008 150.76 341.512 150.643V153.947C340.539 154.217 339.602 154.352 338.699 154.352C335.418 154.352 333.777 152.541 333.777 148.92V138.145H330.648V134.98H333.777V130.357H338.049ZM353.061 154.352C350.354 154.352 348.156 153.502 346.469 151.803C344.793 150.092 343.955 147.818 343.955 144.982V144.455C343.955 142.557 344.318 140.863 345.045 139.375C345.783 137.875 346.814 136.709 348.139 135.877C349.463 135.045 350.939 134.629 352.568 134.629C355.158 134.629 357.156 135.455 358.562 137.107C359.98 138.76 360.689 141.098 360.689 144.121V145.844H348.262C348.391 147.414 348.912 148.656 349.826 149.57C350.752 150.484 351.912 150.941 353.307 150.941C355.264 150.941 356.857 150.15 358.088 148.568L360.391 150.766C359.629 151.902 358.609 152.787 357.332 153.42C356.066 154.041 354.643 154.352 353.061 154.352ZM352.551 138.057C351.379 138.057 350.43 138.467 349.703 139.287C348.988 140.107 348.531 141.25 348.332 142.715H356.471V142.398C356.377 140.969 355.996 139.891 355.328 139.164C354.66 138.426 353.734 138.057 352.551 138.057ZM371.834 150.941C372.9 150.941 373.785 150.631 374.488 150.01C375.191 149.389 375.566 148.621 375.613 147.707H379.639C379.592 148.891 379.223 149.998 378.531 151.029C377.84 152.049 376.902 152.857 375.719 153.455C374.535 154.053 373.258 154.352 371.887 154.352C369.227 154.352 367.117 153.49 365.559 151.768C364 150.045 363.221 147.666 363.221 144.631V144.191C363.221 141.297 363.994 138.982 365.541 137.248C367.088 135.502 369.197 134.629 371.869 134.629C374.131 134.629 375.971 135.291 377.389 136.615C378.818 137.928 379.568 139.656 379.639 141.801H375.613C375.566 140.711 375.191 139.814 374.488 139.111C373.797 138.408 372.912 138.057 371.834 138.057C370.451 138.057 369.385 138.561 368.635 139.568C367.885 140.564 367.504 142.082 367.492 144.121V144.807C367.492 146.869 367.861 148.41 368.6 149.43C369.35 150.438 370.428 150.941 371.834 150.941ZM387.074 137.055C388.469 135.438 390.232 134.629 392.365 134.629C396.42 134.629 398.477 136.943 398.535 141.572V154H394.264V141.73C394.264 140.418 393.977 139.492 393.402 138.953C392.84 138.402 392.008 138.127 390.906 138.127C389.195 138.127 387.918 138.889 387.074 140.412V154H382.803V127H387.074V137.055Z" fill="#1F3832"/>
<path d="M0 0H479V298H0V0Z" fill="#2B1BE4" fill-opacity="0.17"/>
<path d="M76.5862 227.776C68.4578 227.776 61.8448 234.389 61.8448 242.517C61.8448 250.646 68.4578 257.259 76.5862 257.259C84.7146 257.259 91.3276 250.646 91.3276 242.517C91.3276 234.389 84.7146 227.776 76.5862 227.776ZM76.5862 251.362C71.7098 251.362 67.7414 247.394 67.7414 242.517C67.7414 237.641 71.7098 233.672 76.5862 233.672C81.4627 233.672 85.4311 237.641 85.4311 242.517C85.4311 247.394 81.4627 251.362 76.5862 251.362Z" fill="#413DF4"/>
<path d="M215.155 204.19C215.155 196.834 211.101 193.393 207.151 191.71C210.246 189.006 212.207 185.029 212.207 180.603C212.207 172.475 205.594 165.862 197.466 165.862H155.111L157.26 155.808C160.129 142.397 158.245 127.163 157.602 122.814C156.075 112.516 146.967 101 137.064 101H136.36C131.654 101 123.759 103.68 123.759 121.638C123.759 145.292 117.856 156.115 112.906 161.027C108.05 165.844 103.38 165.791 103.121 165.862H100.172V159.966H53V272H100.172V266.103H182.724C190.853 266.103 197.466 259.49 197.466 251.362C197.466 247.93 196.286 244.77 194.314 242.261C201.136 240.972 206.31 234.967 206.31 227.776C206.31 224.344 205.131 221.184 203.159 218.675C209.981 217.386 215.155 211.38 215.155 204.19ZM58.8966 266.103V165.862H94.2759V266.103H58.8966ZM200.414 213.034H191.569H167.983C166.355 213.034 165.034 214.352 165.034 215.983C165.034 217.613 166.355 218.931 167.983 218.931H191.569C196.445 218.931 200.414 222.899 200.414 227.776C200.414 232.652 196.445 236.621 191.569 236.621H185.672H182.724H162.086C160.459 236.621 159.138 237.939 159.138 239.569C159.138 241.199 160.459 242.517 162.086 242.517H182.724C187.601 242.517 191.569 246.486 191.569 251.362C191.569 256.239 187.601 260.207 182.724 260.207H100.172V171.759L103.029 171.756C103.315 171.812 110.164 171.903 116.833 165.435C125.342 157.191 129.655 142.456 129.655 121.638C129.655 116.133 130.525 106.897 136.36 106.897H137.064C143.642 106.897 150.65 116.125 151.767 123.675C152.378 127.779 154.155 142.131 151.493 154.573L147.822 171.759H197.466C202.342 171.759 206.31 175.727 206.31 180.603C206.31 185.48 202.342 189.448 197.466 189.448H191.569H188.621H167.983C166.355 189.448 165.034 190.766 165.034 192.397C165.034 194.027 166.355 195.345 167.983 195.345H188.621C191.224 195.345 196.95 195.463 199.983 195.914C207.681 197.055 209.259 200.047 209.259 204.19C209.259 209.066 205.29 213.034 200.414 213.034Z" fill="#413DF4"/>
<path d="M261.5 167L268.123 198.094H289.556L272.217 217.312L278.84 248.406L261.5 229.188L244.16 248.406L250.783 217.312L233.444 198.094H254.877L261.5 167Z" fill="#312F9B"/>
<path d="M390.5 167L397.123 198.094H418.556L401.217 217.312L407.84 248.406L390.5 229.188L373.16 248.406L379.783 217.312L362.444 198.094H383.877L390.5 167Z" fill="#312F9B"/>
<path d="M320.5 167L327.123 198.094H348.556L331.217 217.312L337.84 248.406L320.5 229.188L303.16 248.406L309.783 217.312L292.444 198.094H313.877L320.5 167Z" fill="#312F9B"/>
</svg>
