<svg width="557" height="633" viewBox="0 0 557 633" fill="none" xmlns="http://www.w3.org/2000/svg">
<path d="M198.158 33.1191C198.158 35.334 197.76 37.2969 196.963 39.0078C196.178 40.707 195.053 42.0254 193.588 42.9629C192.123 43.8887 190.436 44.3516 188.525 44.3516C185.643 44.3516 183.311 43.3262 181.529 41.2754C179.748 39.2246 178.857 36.459 178.857 32.9785V29.2871C178.857 27.084 179.25 25.127 180.035 23.416C180.832 21.7051 181.963 20.3867 183.428 19.4609C184.904 18.5234 186.592 18.0547 188.49 18.0547C190.4 18.0547 192.088 18.5234 193.553 19.4609C195.029 20.3867 196.166 21.7109 196.963 23.4336C197.76 25.1445 198.158 27.0957 198.158 29.2871V33.1191ZM197.209 29.252C197.209 26.1582 196.424 23.6797 194.854 21.8164C193.283 19.9414 191.162 19.0039 188.49 19.0039C185.854 19.0039 183.75 19.9355 182.18 21.7988C180.609 23.6504 179.824 26.1758 179.824 29.375V33.1191C179.824 35.1582 180.176 36.9629 180.879 38.5332C181.594 40.0918 182.607 41.293 183.92 42.1367C185.232 42.9805 186.768 43.4023 188.525 43.4023C191.197 43.4023 193.312 42.4707 194.871 40.6074C196.43 38.7441 197.209 36.2012 197.209 32.9785V29.252ZM216.703 25.9473H209.232V44H208.283V25.9473H201.199V24.9805H216.703V25.9473ZM232.277 29.8496C232.277 28.502 231.779 27.4531 230.783 26.7031C229.799 25.9531 228.357 25.5781 226.459 25.5781C224.818 25.5781 223.43 25.9941 222.293 26.8262C221.168 27.6582 220.605 28.7012 220.605 29.9551H219.639C219.639 28.4199 220.301 27.1484 221.625 26.1406C222.961 25.1328 224.572 24.6289 226.459 24.6289C228.615 24.6289 230.285 25.0977 231.469 26.0352C232.652 26.9609 233.244 28.25 233.244 29.9023C233.244 30.8984 232.922 31.7832 232.277 32.5566C231.633 33.3301 230.725 33.8984 229.553 34.2617C232.236 34.8711 233.578 36.418 233.578 38.9023C233.578 40.5664 232.934 41.8906 231.645 42.875C230.367 43.8477 228.645 44.334 226.477 44.334C225.211 44.334 224.021 44.0996 222.908 43.6309C221.795 43.1621 220.916 42.5059 220.271 41.6621C219.639 40.8184 219.322 39.834 219.322 38.709H220.289C220.289 40.0215 220.875 41.1289 222.047 42.0312C223.219 42.9219 224.695 43.3672 226.477 43.3672C228.492 43.3672 230.016 42.9746 231.047 42.1895C232.09 41.3926 232.611 40.3145 232.611 38.9551C232.611 37.4902 232.102 36.4297 231.082 35.7734C230.074 35.1172 228.557 34.7832 226.529 34.7715H223.875V33.8047H226.723C230.426 33.7461 232.277 32.4277 232.277 29.8496ZM239.748 32.2227H245.988C248.016 32.2578 249.627 32.8086 250.822 33.875C252.018 34.9297 252.615 36.3418 252.615 38.1113C252.615 39.8691 252.023 41.2812 250.84 42.3477C249.656 43.4141 248.039 43.9648 245.988 44H238.799V24.9805H239.748V32.2227ZM239.748 33.1719V43.0508H245.812C247.641 43.0508 249.07 42.6055 250.102 41.7148C251.145 40.8125 251.666 39.5996 251.666 38.0762C251.666 36.623 251.156 35.4512 250.137 34.5605C249.129 33.6582 247.734 33.1953 245.953 33.1719H239.748ZM258.732 44H257.783V24.9805H258.732V44ZM264.92 44V24.9805H271.459C273.768 24.9805 275.531 25.4023 276.75 26.2461C277.98 27.0781 278.596 28.2969 278.596 29.9023C278.596 30.957 278.268 31.877 277.611 32.6621C276.967 33.4473 276.041 33.9746 274.834 34.2441H274.852C276.141 34.3848 277.225 34.8887 278.104 35.7559C278.982 36.623 279.422 37.6543 279.422 38.8496C279.422 40.4785 278.818 41.7441 277.611 42.6465C276.416 43.5488 274.74 44 272.584 44H264.92ZM265.869 34.8418V43.0508H272.672C274.488 43.0508 275.912 42.6875 276.943 41.9609C277.975 41.2344 278.49 40.2031 278.49 38.8672C278.49 37.6719 277.963 36.7051 276.908 35.9668C275.865 35.2168 274.436 34.8418 272.619 34.8418H265.869ZM265.869 33.8926H271.811C273.732 33.8926 275.186 33.5527 276.17 32.873C277.154 32.1934 277.646 31.1855 277.646 29.8496C277.646 28.4902 277.119 27.5 276.064 26.8789C275.01 26.2578 273.475 25.9473 271.459 25.9473H265.869V33.8926ZM285.592 32.2227H291.832C293.859 32.2578 295.471 32.8086 296.666 33.875C297.861 34.9297 298.459 36.3418 298.459 38.1113C298.459 39.8691 297.867 41.2812 296.684 42.3477C295.5 43.4141 293.883 43.9648 291.832 44H284.643V24.9805H285.592V32.2227ZM285.592 33.1719V43.0508H291.656C293.484 43.0508 294.914 42.6055 295.945 41.7148C296.988 40.8125 297.51 39.5996 297.51 38.0762C297.51 36.623 297 35.4512 295.98 34.5605C294.973 33.6582 293.578 33.1953 291.797 33.1719H285.592ZM304.576 44H303.627V24.9805H304.576V44ZM132.926 86H131.959V76.7012H120.199V86H119.25V66.9805H120.199V75.752H131.959V66.9805H132.926V86ZM151.26 86C151.025 85.1914 150.908 84.0312 150.908 82.5195C150.158 83.7383 149.133 84.6816 147.832 85.3496C146.531 86.0176 145.061 86.3516 143.42 86.3516C141.662 86.3516 140.244 85.877 139.166 84.9277C138.1 83.9668 137.566 82.7188 137.566 81.1836C137.566 79.4375 138.352 78.043 139.922 77C141.504 75.9453 143.602 75.4062 146.215 75.3828H150.908V72.6055C150.908 71.0117 150.404 69.7754 149.396 68.8965C148.4 68.0176 146.971 67.5781 145.107 67.5781C143.373 67.5781 141.926 68.0234 140.766 68.9141C139.605 69.8047 139.025 70.9062 139.025 72.2188L138.076 72.1836C138.076 70.6367 138.756 69.3242 140.115 68.2461C141.475 67.168 143.139 66.6289 145.107 66.6289C147.158 66.6289 148.787 67.1445 149.994 68.1758C151.201 69.1953 151.822 70.6367 151.857 72.5V81.5879C151.857 83.6738 152.021 85.0918 152.35 85.8418V86H151.26ZM143.42 85.4199C145.201 85.4199 146.73 85.0215 148.008 84.2246C149.297 83.4277 150.264 82.3086 150.908 80.8672V76.3496H146.514C143.795 76.3496 141.715 76.8887 140.273 77.9668C139.102 78.8457 138.516 79.9414 138.516 81.2539C138.516 82.4141 138.979 83.3984 139.904 84.207C140.83 85.0156 142.002 85.4199 143.42 85.4199ZM158.941 66.9805V85.0508H168.908V66.9805H169.875V85.0508H179.684V66.9805H180.633V86H157.992V66.9805H158.941ZM198.721 66.9805H199.688V86H198.721V68.668L186.961 86H186.012V66.9805H186.961V84.3125L198.721 66.9805ZM211.307 75.418L217.371 66.9805H218.566L211.887 76.2441L218.918 86H217.74L211.289 77.0703L204.855 86H203.678L210.709 76.2441L204.029 66.9805H205.225L211.307 75.418ZM235.969 76.7012H232.488V86H231.521V66.9805H232.488V75.7695H236.145L243.686 66.9805H245.057L236.971 76.2969L246.164 86H244.74L235.969 76.7012ZM263.074 66.9805V86H262.107V67.9473H253.002L252.633 76.8418C252.445 80.2285 251.988 82.5957 251.262 83.9434C250.547 85.291 249.398 85.9766 247.816 86H247.148V85.0684H247.939C249.135 85.0215 250.008 84.3945 250.559 83.1875C251.121 81.9805 251.49 79.9648 251.666 77.1406L252.088 66.9805H263.074ZM281.83 66.9805H282.797V86H281.83V68.668L270.07 86H269.121V66.9805H270.07V84.3125L281.83 66.9805ZM295.682 86.3516C294.146 86.3516 292.734 85.9414 291.445 85.1211C290.168 84.2891 289.166 83.1523 288.439 81.7109C287.713 80.2695 287.35 78.6699 287.35 76.9121V76.1211C287.35 74.3633 287.701 72.752 288.404 71.2871C289.107 69.8223 290.074 68.6797 291.305 67.8594C292.535 67.0391 293.877 66.6289 295.33 66.6289C297.451 66.6289 299.186 67.3848 300.533 68.8965C301.881 70.4082 302.555 72.3945 302.555 74.8555V75.8574H288.299V76.8945C288.299 78.4414 288.621 79.877 289.266 81.2012C289.922 82.5137 290.818 83.5449 291.955 84.2949C293.104 85.0449 294.346 85.4199 295.682 85.4199C296.959 85.4199 298.043 85.209 298.934 84.7871C299.836 84.3535 300.633 83.6914 301.324 82.8008L301.992 83.2754C300.574 85.3262 298.471 86.3516 295.682 86.3516ZM295.33 67.5781C293.479 67.5781 291.908 68.2695 290.619 69.6523C289.33 71.0234 288.574 72.7754 288.352 74.9082H301.605V74.6797C301.605 73.3906 301.33 72.1953 300.779 71.0938C300.24 69.9805 299.49 69.1191 298.529 68.5098C297.58 67.8887 296.514 67.5781 295.33 67.5781ZM320.66 86H319.693V76.7012H307.934V86H306.984V66.9805H307.934V75.752H319.693V66.9805H320.66V86ZM339.891 67.9473H332.42V86H331.471V67.9473H324.387V66.9805H339.891V67.9473ZM341.438 76.1211C341.438 74.3047 341.783 72.6758 342.475 71.2344C343.178 69.7812 344.162 68.6504 345.428 67.8418C346.705 67.0332 348.146 66.6289 349.752 66.6289C351.346 66.6289 352.775 67.0215 354.041 67.8066C355.307 68.5918 356.291 69.7051 356.994 71.1465C357.709 72.5879 358.072 74.2109 358.084 76.0156V76.8594C358.084 78.6875 357.738 80.3223 357.047 81.7637C356.355 83.2051 355.371 84.3301 354.094 85.1387C352.828 85.9473 351.393 86.3516 349.787 86.3516C348.182 86.3516 346.74 85.9531 345.463 85.1562C344.197 84.3594 343.213 83.2461 342.51 81.8164C341.807 80.375 341.449 78.7578 341.438 76.9648V76.1211ZM342.387 76.8594C342.387 78.4414 342.697 79.8945 343.318 81.2188C343.951 82.5312 344.824 83.5566 345.938 84.2949C347.062 85.0332 348.346 85.4023 349.787 85.4023C351.955 85.4023 353.719 84.5879 355.078 82.959C356.449 81.3301 357.135 79.2324 357.135 76.666V76.1211C357.135 74.5625 356.818 73.1211 356.186 71.7969C355.553 70.4727 354.674 69.4414 353.549 68.7031C352.436 67.9531 351.17 67.5781 349.752 67.5781C347.584 67.5781 345.814 68.4043 344.443 70.0566C343.072 71.709 342.387 73.7891 342.387 76.2969V76.8594ZM362.865 86V66.9805H369.404C371.713 66.9805 373.477 67.4023 374.695 68.2461C375.926 69.0781 376.541 70.2969 376.541 71.9023C376.541 72.957 376.213 73.877 375.557 74.6621C374.912 75.4473 373.986 75.9746 372.779 76.2441H372.797C374.086 76.3848 375.17 76.8887 376.049 77.7559C376.928 78.623 377.367 79.6543 377.367 80.8496C377.367 82.4785 376.764 83.7441 375.557 84.6465C374.361 85.5488 372.686 86 370.529 86H362.865ZM363.814 76.8418V85.0508H370.617C372.434 85.0508 373.857 84.6875 374.889 83.9609C375.92 83.2344 376.436 82.2031 376.436 80.8672C376.436 79.6719 375.908 78.7051 374.854 77.9668C373.811 77.2168 372.381 76.8418 370.564 76.8418H363.814ZM363.814 75.8926H369.756C371.678 75.8926 373.131 75.5527 374.115 74.873C375.1 74.1934 375.592 73.1855 375.592 71.8496C375.592 70.4902 375.064 69.5 374.01 68.8789C372.955 68.2578 371.42 67.9473 369.404 67.9473H363.814V75.8926Z" fill="#220737"/>
<rect x="78" width="479" height="298" fill="#2DD73E" fill-opacity="0.31"/>
</svg>
